#Comment line ignore any data following # character
#Hierarchical Translation and Rotation (.htr) file
[Header]		#Header keywords are followed by a single value
FileType htr		#Single word string
DataType HTRS		#Translation followed by rotation and scale data
FileVersion 1		#integer
NumSegments 18		#integer
NumFrames 9		#integer
DataFrameRate 60		#integer, data frame rate in this file
EulerRotationOrder ZYX
CalibrationUnits mm
RotationUnits Degrees
GlobalAxisofGravity Y
BoneLengthAxis Y
ScaleFactor 1.000000
[SegmentNames&Hierarchy]
#CHILD	PARENT
Head	Neck
Neck	Chest
Chest	Hips
LeftShoulder	LeftCollar
RightShoulder	RightCollar
LeftElbow	LeftShoulder
RightElbow	RightShoulder
LeftWrist	LeftElbow
RightWrist	RightElbow
Hips	GLOBAL
LeftHip	Hips
RightHip	Hips
LeftKnee	LeftHip
RightKnee	RightHip
LeftAnkle	LeftKnee
RightAnkle	RightKnee
LeftCollar	Chest
RightCollar	Chest
[BasePosition]
#SegmentName Tx, Ty, Tz, Rx, Ry, Rz, BoneLength
Head	0.000003	141.966248	0.000002	-37.745777	-8.179454	6.203664	80.000046
Neck	0.000000	379.566772	0.000000	32.855431	-5.194619	1.823337	141.966263
Chest	0.000000	94.891693	0.000000	0.000002	12.877405	-0.000012	379.566803
LeftShoulder	0.000003	154.023666	0.000005	171.957962	-79.977570	-157.094910	215.219986
RightShoulder	-0.000001	146.408707	-0.000001	20.020029	60.865143	-8.207462	240.139038
LeftElbow	0.000007	215.219971	-0.000011	-24.162848	54.442085	-17.491318	336.440125
RightElbow	-0.000021	240.139038	0.000007	-21.925606	-43.617706	23.102211	322.101532
LeftWrist	-0.000014	336.440094	0.000002	173.178864	-0.531422	156.628021	100.348160
RightWrist	0.000005	322.101501	0.000026	1.868945	1.747480	14.125610	109.739998
Hips	377.886597	1077.530640	704.474976	-179.011169	36.455761	-178.006714	94.891701
LeftHip	95.336761	5.238981	-8.336124	-0.485735	-9.415434	-176.117065	525.916443
RightHip	-96.119095	-4.691877	-4.857316	2.457280	-1.423929	-179.125565	528.302429
LeftKnee	0.000004	525.916443	0.000001	-10.646533	-14.541370	-1.855900	514.711975
RightKnee	-0.000002	528.302429	0.000004	-12.768950	2.118825	-3.063609	521.764099
LeftAnkle	0.000003	514.711975	0.000009	97.965164	-0.000001	0.000000	253.446518
RightAnkle	0.000001	521.764099	-0.000002	99.242271	0.000002	0.000000	256.283173
LeftCollar	19.999998	366.483276	-15.126845	169.660507	-4.312743	90.901894	154.023682
RightCollar	-19.999996	366.483215	-15.126822	171.369568	4.171492	-91.645760	146.408707
#Beginning of Data. Separated by tabs
[Head]
#Fr	Tx	Ty	Tz	Rx	Ry	Rz	SF
113	-0.000006	5.411606	0.000001	-9.414668	-12.807904	7.803221	0.999999
114	-0.000002	5.162033	-0.000008	-8.864920	-13.340368	7.776114	0.999999
115	-0.000003	5.234726	-0.000000	-8.570360	-13.737804	7.815063	1.000000
116	-0.000001	5.402054	0.000006	-8.317039	-14.124028	7.992089	1.000000
117	-0.000006	5.272064	-0.000012	-7.714694	-14.488697	8.493896	1.000000
118	-0.000003	5.487762	0.000001	-7.635365	-14.855512	8.447915	1.000000
119	-0.000005	5.742004	-0.000025	-7.698473	-15.164315	8.652891	1.000000
120	-0.000006	6.046387	0.000001	-7.901213	-15.434240	9.053819	0.999999
121	-0.000002	6.194366	-0.000000	-7.985261	-15.853511	9.409335	0.999999
[Neck]
#Fr	Tx	Ty	Tz	Rx	Ry	Rz	SF
113	-0.000001	-14.541687	0.000001	-0.965400	-3.597769	-0.448039	1.038119
114	0.000001	-14.473267	-0.000001	-0.973380	-3.668081	-0.517361	1.036361
115	0.000001	-14.342468	0.000004	-0.915318	-3.695725	-0.643568	1.036873
116	-0.000002	-14.077606	-0.000004	-0.893508	-3.752481	-0.777469	1.038052
117	0.000004	-13.967194	0.000001	-0.953120	-3.804842	-1.184469	1.037136
118	-0.000007	-13.831360	-0.000008	-0.978051	-3.853994	-1.212646	1.038655
119	-0.000001	-13.704498	-0.000013	-0.976304	-3.867282	-1.436460	1.040446
120	-0.000001	-13.533020	0.000001	-0.967259	-3.856367	-1.781733	1.042590
121	-0.000004	-13.487701	-0.000003	-1.022912	-3.934300	-1.992969	1.043632
[Chest]
#Fr	Tx	Ty	Tz	Rx	Ry	Rz	SF
113	-0.000001	-3.635490	-0.000001	-0.000002	-1.251737	0.000012	0.961689
114	0.000000	-3.618362	-0.000000	-0.000028	-0.756398	0.000011	0.961869
115	-0.000001	-3.585678	-0.000000	-0.000002	-0.140610	0.000009	0.962214
116	0.000000	-3.519363	-0.000002	-0.000008	0.599903	0.000008	0.962911
117	-0.000000	-3.491768	0.000000	-0.000017	1.386343	0.000006	0.963202
118	-0.000000	-3.457802	0.000002	-0.000014	2.007265	0.000012	0.963560
119	-0.000000	-3.426155	-0.000001	-0.000011	2.497901	0.000014	0.963894
120	-0.000000	-3.383270	-0.000000	-0.000029	2.959852	0.000015	0.964346
121	0.000001	-3.371971	0.000000	-0.000035	3.379045	0.000018	0.964465
[LeftShoulder]
#Fr	Tx	Ty	Tz	Rx	Ry	Rz	SF
113	-0.000005	9.471817	-0.000006	53.313854	24.936451	55.988632	1.194822
114	-0.000003	9.598526	0.000006	52.826702	23.620523	53.631313	1.199830
115	0.000006	9.753174	0.000001	52.326027	22.405302	51.225094	1.204971
116	0.000005	9.918091	-0.000010	51.820156	21.328043	48.842747	1.210085
117	-0.000003	10.133514	0.000002	51.288380	20.364882	46.474201	1.214613
118	-0.000008	10.342133	-0.000008	50.728706	19.538652	44.153019	1.218536
119	-0.000003	10.510986	0.000000	50.148907	18.842720	41.865322	1.221625
120	-0.000010	10.687195	-0.000009	49.584969	18.289879	39.678608	1.223819
121	-0.000010	10.881760	-0.000001	49.039528	17.823204	37.547112	1.225126
[RightShoulder]
#Fr	Tx	Ty	Tz	Rx	Ry	Rz	SF
113	0.000002	10.701706	-0.000004	57.694057	-57.633717	-97.557159	1.024597
114	0.000001	10.609528	-0.000005	57.850174	-57.820747	-98.443771	1.026163
115	-0.000003	10.500397	0.000002	58.120834	-58.055573	-99.423195	1.027789
116	0.000003	10.354050	0.000004	58.432522	-58.302628	-100.424507	1.029615
117	0.000005	10.165100	-0.000004	58.742802	-58.565586	-101.380119	1.031462
118	-0.000001	9.968979	-0.000008	59.093258	-58.850029	-102.300285	1.033303
119	0.000003	9.791214	-0.000002	59.395901	-59.049007	-103.034920	1.035292
120	0.000003	9.605331	0.000007	59.611835	-59.258961	-103.537750	1.037051
121	0.000001	9.409027	0.000007	59.687054	-59.436249	-103.734955	1.038593
[LeftElbow]
#Fr	Tx	Ty	Tz	Rx	Ry	Rz	SF
113	-0.000019	41.929565	0.000019	-90.498611	-18.797501	45.216698	0.748208
114	-0.000015	43.007385	0.000016	-89.080170	-19.808580	50.173206	0.754955
115	0.000010	44.113739	0.000017	-88.131767	-21.117903	55.635155	0.761482
116	-0.000010	45.214447	0.000002	-87.597832	-22.733522	61.214802	0.767329
117	0.000001	46.189117	0.000008	-87.500626	-24.602951	66.953308	0.772328
118	-0.000010	47.033325	-0.000004	-87.811066	-26.664696	72.634087	0.776397
119	-0.000024	47.698151	-0.000002	-88.516823	-28.854162	78.222763	0.779695
120	-0.000007	48.170471	-0.000006	-89.479454	-31.121382	83.381630	0.782174
121	-0.000007	48.451630	0.000037	-90.671265	-33.409969	88.154305	0.783855
[RightElbow]
#Fr	Tx	Ty	Tz	Rx	Ry	Rz	SF
113	0.000038	5.906708	-0.000015	-56.046650	47.776199	47.455349	0.832052
114	0.000029	6.282761	-0.000016	-56.276810	47.305569	45.710762	0.833901
115	0.000021	6.673203	-0.000009	-56.760429	47.005878	43.770988	0.834955
116	0.000023	7.111755	-0.000021	-57.604431	46.922867	41.537212	0.835294
117	0.000037	7.555191	-0.000007	-58.797977	47.009117	38.987225	0.834905
118	0.000010	7.997437	-0.000013	-60.216812	47.213772	36.289852	0.834189
119	0.000023	8.475098	-0.000018	-61.880207	47.503597	33.424656	0.833275
120	0.000032	8.897293	-0.000007	-63.735828	47.827591	30.399658	0.832048
121	0.000036	9.267776	-0.000009	-65.608170	48.116222	27.379303	0.830312
[LeftWrist]
#Fr	Tx	Ty	Tz	Rx	Ry	Rz	SF
113	-0.000005	-84.712738	-0.000008	108.799843	-63.166245	-121.971786	0.963993
114	0.000006	-82.442764	0.000023	105.396675	-65.930565	-122.232666	0.973416
115	-0.000001	-80.247131	-0.000026	101.152710	-68.840950	-121.424385	0.982530
116	0.000021	-78.279633	0.000010	96.100609	-71.764198	-119.381813	0.991468
117	-0.000006	-76.597931	-0.000005	89.560944	-74.782509	-115.583237	0.999669
118	0.000020	-75.228882	-0.000031	80.799889	-77.699867	-109.211594	1.007189
119	0.000015	-74.119385	0.000005	68.899750	-80.193085	-99.363953	1.012490
120	0.000034	-73.285248	0.000020	51.413052	-82.176559	-83.675491	1.017391
121	0.000012	-72.719910	-0.000004	26.989807	-83.220604	-60.850658	1.020933
[RightWrist]
#Fr	Tx	Ty	Tz	Rx	Ry	Rz	SF
113	-0.000038	-54.096344	-0.000034	148.578308	84.309731	176.944626	0.881822
114	-0.000018	-53.500885	-0.000014	143.542206	85.066200	169.668365	0.882291
115	0.000013	-53.161133	-0.000038	140.174881	85.758636	164.068878	0.884207
116	-0.000020	-53.052124	0.000018	139.393280	86.381470	161.142502	0.887160
117	-0.000041	-53.177246	-0.000051	143.158127	86.974861	162.920288	0.891322
118	-0.000016	-53.407928	-0.000008	149.611084	87.383537	167.694336	0.896641
119	0.000003	-53.702454	-0.000011	161.411758	87.645630	178.014236	0.902479
120	-0.000025	-54.097717	-0.000039	176.532837	87.705734	-168.146378	0.907684
121	-0.000020	-54.656647	-0.000009	-168.392593	87.559807	-154.163162	0.912587
[Hips]
#Fr	Tx	Ty	Tz	Rx	Ry	Rz	SF
113	-1254.584961	7.670044	-552.165894	38.391304	-66.267784	-15.717056	0.961688
114	-1251.218994	9.270508	-550.807373	38.529018	-66.029007	-16.717381	0.961868
115	-1247.894043	10.785156	-549.816040	38.964520	-65.945457	-17.978733	0.962213
116	-1244.502930	12.042480	-548.993530	39.662197	-65.976265	-19.483824	0.962912
117	-1240.763672	13.337891	-548.346191	40.484200	-66.049484	-21.094154	0.963203
118	-1236.778564	14.446655	-548.128418	41.116158	-66.045364	-22.457291	0.963560
119	-1232.968018	15.566040	-548.509033	41.668007	-65.998154	-23.624756	0.963894
120	-1229.025391	16.544922	-549.054443	42.208309	-65.907776	-24.729130	0.964346
121	-1224.635498	17.505615	-549.723206	42.654644	-65.758896	-25.719322	0.964465
[LeftHip]
#Fr	Tx	Ty	Tz	Rx	Ry	Rz	SF
113	1.141464	-0.891007	2.439422	42.350090	-4.068299	6.044585	1.003901
114	1.050842	-0.556058	1.783673	41.302399	-4.155260	6.484333	1.004504
115	0.823029	-0.086435	1.341815	40.209072	-4.360366	6.968166	1.004698
116	0.655716	0.458140	1.255509	39.041111	-4.655545	7.564551	1.003934
117	0.547722	1.158667	1.115930	37.829155	-4.911009	8.215448	1.003489
118	0.365891	1.741137	0.958184	36.707142	-5.044554	8.741833	1.002753
119	0.356422	2.290835	0.628127	35.752800	-5.127192	9.182961	1.002449
120	0.493736	2.895470	0.823127	34.836834	-5.142886	9.648645	1.001618
121	0.548843	3.302505	0.444187	33.979404	-5.099125	10.121510	1.001154
[RightHip]
#Fr	Tx	Ty	Tz	Rx	Ry	Rz	SF
113	-0.260918	-2.550621	2.525026	33.576897	-1.177217	1.661075	1.011667
114	-0.216248	-3.109041	2.311473	32.216267	-1.331270	2.224747	1.011690
115	-0.072762	-3.576692	2.501866	30.939335	-1.458441	2.873998	1.011389
116	0.046562	-3.952864	2.829193	29.720798	-1.554294	3.625004	1.011320
117	0.111084	-4.503560	3.158858	28.550518	-1.657674	4.391207	1.010994
118	0.277824	-5.016271	3.246726	27.411283	-1.692120	5.007076	1.010814
119	0.217064	-5.533396	3.453948	26.374899	-1.774243	5.488927	1.010698
120	0.116646	-5.956362	3.567029	25.440321	-1.773636	6.001081	1.010352
121	0.014267	-6.403457	3.447499	24.502514	-1.865473	6.422081	1.010150
[LeftKnee]
#Fr	Tx	Ty	Tz	Rx	Ry	Rz	SF
113	-0.000011	2.051697	0.000014	-16.502201	20.600248	4.141995	0.976728
114	-0.000006	2.368469	-0.000027	-16.165508	21.195665	4.108644	0.976639
115	0.000002	2.470825	0.000012	-15.683072	21.671864	4.157843	0.976600
116	-0.000010	2.068970	0.000054	-15.085534	21.935471	4.215207	0.976328
117	0.000011	1.835022	0.000021	-14.408797	21.909615	4.365401	0.975961
118	0.000004	1.447693	0.000003	-13.746227	21.853544	4.661227	0.975808
119	0.000017	1.287781	-0.000009	-13.174826	21.794907	4.876530	0.975724
120	-0.000002	0.851013	0.000013	-12.657401	21.705738	5.024337	0.975688
121	-0.000011	0.606873	-0.000036	-12.198077	21.569164	5.113869	0.975520
[RightKnee]
#Fr	Tx	Ty	Tz	Rx	Ry	Rz	SF
113	0.000010	6.163574	-0.000007	-18.272383	30.830952	-2.888274	0.988097
114	0.000000	6.175964	-0.000002	-17.330725	30.972176	-2.525317	0.987891
115	0.000002	6.016663	0.000013	-16.437979	30.872290	-2.222191	0.988369
116	0.000005	5.980591	0.000018	-15.583895	30.589828	-1.999871	0.988860
117	0.000006	5.808472	0.000011	-14.823112	30.272470	-1.853688	0.989770
118	-0.000012	5.713257	-0.000016	-14.079821	30.006584	-1.631888	0.990257
119	0.000002	5.651978	0.000007	-13.329030	29.901054	-1.365538	0.990404
120	-0.000006	5.469177	-0.000005	-12.695736	29.737228	-1.218162	0.991228
121	-0.000005	5.362366	-0.000010	-12.053731	29.771587	-1.033085	0.991907
[LeftAnkle]
#Fr	Tx	Ty	Tz	Rx	Ry	Rz	SF
113	-0.000010	-11.978363	-0.000028	-2.259410	0.000000	-0.000001	1.025400
114	-0.000006	-12.023926	-0.000024	-2.250243	-0.000000	-0.000002	1.025354
115	-0.000015	-12.044434	-0.000008	-2.300118	0.000000	-0.000001	1.025072
116	-0.000002	-12.184326	0.000038	-2.397414	-0.000001	-0.000001	1.025175
117	0.000007	-12.373199	-0.000035	-2.476554	-0.000000	-0.000002	1.025420
118	0.000013	-12.451935	-0.000037	-2.530769	-0.000000	-0.000000	1.025534
119	0.000014	-12.495026	-0.000001	-2.543046	-0.000001	-0.000001	1.025627
120	-0.000035	-12.513733	0.000028	-2.556968	-0.000000	-0.000001	1.025623
121	-0.000027	-12.600128	0.000010	-2.525845	0.000000	-0.000001	1.025783
[RightAnkle]
#Fr	Tx	Ty	Tz	Rx	Ry	Rz	SF
113	0.000033	-6.210693	-0.000019	6.396818	0.000000	0.000002	1.005137
114	0.000002	-6.318237	0.000007	6.166599	0.000000	0.000004	1.004875
115	0.000001	-6.068665	0.000013	5.956750	-0.000000	0.000001	1.004914
116	-0.000018	-5.812622	0.000012	5.752853	-0.000000	0.000002	1.004510
117	-0.000034	-5.337708	-0.000009	5.582275	0.000001	0.000000	1.004385
118	-0.000005	-5.083252	0.000003	5.401963	0.000000	0.000002	1.004418
119	-0.000001	-5.006836	0.000004	5.192424	0.000000	0.000002	1.004471
120	-0.000002	-4.576904	-0.000001	5.002331	0.000000	0.000002	1.004498
121	-0.000007	-4.222656	-0.000012	4.800745	0.000000	0.000003	1.004299
[LeftCollar]
#Fr	Tx	Ty	Tz	Rx	Ry	Rz	SF
113	-0.000006	-14.239166	-0.256480	-6.192669	1.045135	7.636611	1.061496
114	0.000008	-14.187500	-0.242517	-5.675761	0.909292	8.006833	1.062318
115	0.000000	-14.068298	-0.232898	-5.157377	0.793012	8.353606	1.063322
116	0.000006	-13.805176	-0.231430	-4.674653	0.721010	8.639849	1.064393
117	0.000006	-13.683868	-0.240464	-4.221753	0.700290	8.882424	1.065792
118	0.000000	-13.526917	-0.258086	-3.770538	0.716043	9.121739	1.067146
119	-0.000004	-13.386688	-0.269152	-3.344456	0.701441	9.366570	1.068243
120	0.000008	-13.199127	-0.282453	-2.960944	0.702433	9.567928	1.069386
121	-0.000010	-13.126648	-0.304880	-2.623538	0.750717	9.725511	1.070650
[RightCollar]
#Fr	Tx	Ty	Tz	Rx	Ry	Rz	SF
113	0.000002	-14.239166	-0.256460	-4.372543	-0.869382	-8.554585	1.073095
114	-0.000004	-14.187378	-0.242567	-4.877944	-0.890769	-8.273059	1.072465
115	0.000004	-14.068298	-0.232874	-5.438629	-0.938220	-7.994617	1.071720
116	0.000002	-13.805145	-0.231463	-6.000114	-1.021737	-7.746515	1.070720
117	0.000000	-13.683868	-0.240510	-6.523881	-1.144754	-7.545464	1.069430
118	-0.000015	-13.526794	-0.258143	-7.043884	-1.304033	-7.350848	1.068090
119	-0.000004	-13.386688	-0.269195	-7.562661	-1.431583	-7.135920	1.066876
120	-0.000004	-13.199097	-0.282487	-7.990718	-1.554002	-6.980678	1.065606
121	0.000002	-13.126678	-0.304909	-8.315871	-1.700090	-6.896410	1.064265
[EndOfFile]
